<svg xmlns="http://www.w3.org/2000/svg" viewBox="0 0 820 420" font-family="Segoe UI, sans-serif">
  <defs>
    <linearGradient id="bgGrad" x1="0%" y1="0%" x2="100%" y2="100%">
      <stop offset="0%" style="stop-color:#0f172a;stop-opacity:1"/>
      <stop offset="100%" style="stop-color:#1e293b;stop-opacity:1"/>
    </linearGradient>
    <linearGradient id="sensorGrad" x1="0%" y1="0%" x2="100%" y2="100%">
      <stop offset="0%" style="stop-color:#334155;stop-opacity:1"/>
      <stop offset="100%" style="stop-color:#0f172a;stop-opacity:1"/>
    </linearGradient>
    <linearGradient id="surfGrad" x1="0%" y1="0%" x2="0%" y2="100%">
      <stop offset="0%" style="stop-color:#f59e0b;stop-opacity:0.95"/>
      <stop offset="100%" style="stop-color:#b45309;stop-opacity:0.95"/>
    </linearGradient>
    <marker id="arrow" viewBox="0 0 10 10" refX="8" refY="5" markerWidth="6" markerHeight="6" orient="auto">
      <path d="M0,0 L10,5 L0,10 z" fill="#38bdf8"/>
    </marker>
  </defs>

  <rect width="820" height="420" fill="url(#bgGrad)"/>

  <!-- Title -->
  <text x="410" y="30" text-anchor="middle" fill="#e2e8f0" font-size="18" font-weight="600">
    RGB-D Sensor Geometry — Pinhole Model &amp; Depth Acquisition
  </text>
  <text x="410" y="50" text-anchor="middle" fill="#94a3b8" font-size="12">
    IR projector + RGB + depth sensors produce co-registered (u, v, Z) per pixel
  </text>

  <!-- Camera body -->
  <rect x="80" y="150" width="160" height="110" rx="10" fill="url(#sensorGrad)" stroke="#64748b" stroke-width="1.5"/>
  <text x="160" y="140" text-anchor="middle" fill="#cbd5e1" font-size="13" font-weight="600">RGB-D Camera</text>

  <!-- Camera lenses -->
  <circle cx="115" cy="195" r="16" fill="#1e293b" stroke="#38bdf8" stroke-width="2"/>
  <circle cx="115" cy="195" r="8" fill="#0ea5e9"/>
  <text x="115" y="240" text-anchor="middle" fill="#94a3b8" font-size="10">IR proj.</text>

  <circle cx="160" cy="195" r="16" fill="#1e293b" stroke="#f472b6" stroke-width="2"/>
  <circle cx="160" cy="195" r="8" fill="#ec4899"/>
  <text x="160" y="240" text-anchor="middle" fill="#94a3b8" font-size="10">RGB</text>

  <circle cx="205" cy="195" r="16" fill="#1e293b" stroke="#34d399" stroke-width="2"/>
  <circle cx="205" cy="195" r="8" fill="#10b981"/>
  <text x="205" y="240" text-anchor="middle" fill="#94a3b8" font-size="10">IR cam</text>

  <!-- Optical axis -->
  <line x1="240" y1="205" x2="560" y2="205" stroke="#475569" stroke-width="1" stroke-dasharray="4 3"/>
  <text x="400" y="200" text-anchor="middle" fill="#64748b" font-size="10">optical axis (Z)</text>

  <!-- Frustum -->
  <polygon points="240,205 560,100 560,310" fill="rgba(56,189,248,0.08)" stroke="#38bdf8" stroke-width="1" stroke-dasharray="3 3"/>

  <!-- Principal point cx, cy + focal length -->
  <line x1="240" y1="205" x2="240" y2="130" stroke="#fbbf24" stroke-width="1"/>
  <text x="255" y="125" fill="#fbbf24" font-size="11">(cx, cy)</text>
  <text x="290" y="220" fill="#fbbf24" font-size="11">f (focal length)</text>

  <!-- Surface -->
  <path d="M 560,100 Q 620,180 580,250 T 560,310 L 660,310 Q 700,240 690,180 T 660,100 Z"
        fill="url(#surfGrad)" stroke="#f59e0b" stroke-width="1.5" opacity="0.9"/>
  <text x="615" y="370" text-anchor="middle" fill="#fbbf24" font-size="12" font-weight="600">Scene surface</text>
  <text x="615" y="388" text-anchor="middle" fill="#94a3b8" font-size="10">z = f(x, y)</text>

  <!-- Ray to 3D point P -->
  <circle cx="620" cy="170" r="5" fill="#fbbf24" stroke="#e2e8f0" stroke-width="1.5"/>
  <text x="632" y="165" fill="#e2e8f0" font-size="11" font-weight="600">P = (X, Y, Z)</text>
  <line x1="240" y1="205" x2="620" y2="170" stroke="#38bdf8" stroke-width="1.5" marker-end="url(#arrow)"/>

  <!-- Pixel (u, v) label near lens plane -->
  <circle cx="340" cy="172" r="3" fill="#38bdf8"/>
  <text x="315" y="165" fill="#38bdf8" font-size="11">pixel (u, v)</text>

  <!-- Equations panel -->
  <rect x="50" y="295" width="360" height="100" rx="8" fill="#0b1220" stroke="#334155" stroke-width="1"/>
  <text x="65" y="315" fill="#e2e8f0" font-size="12" font-weight="600">Pinhole unprojection (pixel → 3D):</text>
  <text x="65" y="338" fill="#cbd5e1" font-size="12" font-family="monospace">X = (u − cx) · Z / fx</text>
  <text x="65" y="356" fill="#cbd5e1" font-size="12" font-family="monospace">Y = (v − cy) · Z / fy</text>
  <text x="65" y="380" fill="#94a3b8" font-size="10">fx, fy = focal lengths (px);  cx, cy = principal point;  Z = depth</text>

  <!-- Depth sample legend -->
  <rect x="430" y="335" width="370" height="60" rx="8" fill="#0b1220" stroke="#334155" stroke-width="1"/>
  <text x="445" y="355" fill="#e2e8f0" font-size="11" font-weight="600">Per-pixel output:</text>
  <rect x="445" y="365" width="14" height="14" fill="#ec4899"/>
  <text x="465" y="377" fill="#cbd5e1" font-size="11">RGB(u,v)</text>
  <rect x="545" y="365" width="14" height="14" fill="#10b981"/>
  <text x="565" y="377" fill="#cbd5e1" font-size="11">Depth Z(u,v) [mm]</text>
  <rect x="690" y="365" width="14" height="14" fill="#38bdf8"/>
  <text x="710" y="377" fill="#cbd5e1" font-size="11">Normal n̂(u,v)</text>
</svg>
